<svg width="74" height="25" viewBox="0 0 74 25" fill="none" xmlns="http://www.w3.org/2000/svg">
<g clip-path="url(#clip0_82_31)">
<path d="M20.3284 3.28299L21.2771 4.29413L23.3308 2.97384C24.1778 2.86891 24.5843 1.0671 22.271 1.61535C21.6926 1.76203 20.8034 2.17398 20.3284 3.28299Z" fill="#89664C"/>
<path d="M23.7536 2.97886C24.4488 2.71829 23.959 1.90499 23.959 1.90499C23.959 1.90499 24.1057 2.48342 23.0276 2.62396C21.4489 2.83525 21.0119 3.98316 21.0119 3.98316L21.2777 4.25552C21.2777 4.25552 22.2086 3.57498 23.7536 2.97886Z" fill="#594640"/>
<path d="M20.8386 2.43063C24.1772 6.04675 21.19 11.392 17.7311 17.5773C17.4555 18.1121 17.1419 18.608 16.8662 19.1428C14.4289 23.5338 10.9255 23.9521 9.04349 23.8137C6.93136 23.634 4.8296 22.6087 3.42584 21.0922C1.98411 19.5368 1.05055 17.2957 0.924629 15.0261C0.795408 13.0255 1.18803 9.22448 5.29487 6.62234C5.75988 6.32051 6.26333 6.01914 6.72835 5.71731C12.5016 2.02079 17.5001 -1.18549 20.8386 2.43063Z" fill="#699635"/>
<path d="M5.97341 7.71975C11.5911 4.17509 17.3316 0.016858 20.2525 3.20499C23.174 6.35468 17.2821 10.3188 13.9399 16.3902C10.5983 22.4231 6.58815 23.4118 3.96997 20.6119C1.39071 17.7739 0.316845 11.3024 5.97341 7.71975Z" fill="#C7E755"/>
<path d="M4.59309 19.9655C5.20054 20.588 5.84972 20.942 6.61798 20.9899C8.73011 21.1695 11.0993 19.1996 13.1039 15.6106C14.2445 13.5103 15.6893 11.6828 16.978 10.0455C19.0083 7.4948 20.8834 5.05749 19.7075 3.77446C17.6967 1.597 12.3885 4.99169 8.12598 7.74569C7.66097 8.04753 7.15752 8.34889 6.6925 8.65072C3.16694 10.8756 2.82124 13.9852 2.91627 15.6394C3.01082 17.332 3.64444 18.9544 4.59309 19.9655Z" fill="#C7E755"/>
<path opacity="0.33" d="M4.59309 19.9655C5.20054 20.588 5.84972 20.942 6.61798 20.9899C8.73011 21.1695 11.0993 19.1996 13.1039 15.6106C14.2445 13.5103 15.6893 11.6828 16.978 10.0455C19.0083 7.4948 20.8834 5.05749 19.7075 3.77446C17.6967 1.597 12.3885 4.99169 8.12598 7.74569C7.66097 8.04753 7.15752 8.34889 6.6925 8.65072C3.16694 10.8756 2.82124 13.9852 2.91627 15.6394C3.01082 17.332 3.64444 18.9544 4.59309 19.9655Z" fill="#FFCE31"/>
<path d="M6.7856 10.4594C9.12293 7.95085 12.5025 8.22298 13.1755 9.76893C13.8485 11.3149 12.8209 13.6088 11.2626 15.2812C9.66599 16.9531 7.53829 18.0418 6.12462 17.3325C4.67252 16.6227 4.44827 12.9679 6.7856 10.4594Z" fill="#89664C"/>
<path d="M6.48529 12.9927C7.50257 11.5443 8.54508 11.1727 8.34865 11.5163C8.19066 11.8603 7.64217 12.6993 7.32524 13.4643C6.96988 14.2288 6.76967 14.8798 6.38248 15.1057C5.99434 15.4085 5.50503 14.5568 6.48529 12.9927Z" fill="#D3976E"/>
<path d="M10.2761 14.2306C8.91333 15.6362 7.28531 16.7311 5.74359 17.0582C5.85749 17.1749 5.97138 17.2916 6.12466 17.3319C7.57629 18.0802 9.66555 16.991 11.2627 15.2806C12.8209 13.6083 13.8486 11.3144 13.1756 9.7684C13.1006 9.61371 13.0251 9.49745 12.9112 9.38073C12.6224 10.9918 11.6008 12.786 10.2761 14.2306Z" fill="#594640"/>
</g>
<path d="M37.128 15.224C37.3093 15.224 37.4 15.4693 37.4 15.96C37.4 16.2267 37.288 16.552 37.064 16.936C36.84 17.3093 36.5467 17.656 36.184 17.976C35.832 18.2853 35.4373 18.5413 35 18.744C34.5627 18.9467 34.136 19.048 33.72 19.048C33.0907 19.048 32.6533 18.8933 32.408 18.584C32.1733 18.264 32.056 17.8 32.056 17.192C32.056 16.5733 32.296 15.5173 32.776 14.024C31.304 13.96 30.232 13.928 29.56 13.928H29.336C29.144 15.112 29.048 16.3547 29.048 17.656C29.048 18.232 28.8293 18.6267 28.392 18.84C28.1893 18.936 27.992 19.0267 27.8 19.112C27.6187 19.1973 27.4213 19.24 27.208 19.24C26.6747 19.24 26.408 18.76 26.408 17.8C26.408 16.84 26.6267 15.608 27.064 14.104C26.5947 14.1573 26.1787 14.2107 25.816 14.264C25.464 14.3173 25.1867 14.344 24.984 14.344C24.7813 14.344 24.68 14.2907 24.68 14.184C24.68 13.864 24.9413 13.5387 25.464 13.208C25.9973 12.8773 26.7173 12.6267 27.624 12.456C28.6267 9.90667 29.8533 8.20533 31.304 7.352C31.8373 7.032 32.4027 6.872 33 6.872C34.0667 6.88267 34.8347 7.17067 35.304 7.736C35.784 8.30133 36.024 9.05333 36.024 9.992C36.0347 10.92 35.752 12.1307 35.176 13.624C34.9627 14.2 34.7653 14.7227 34.584 15.192C34.4027 15.6613 34.312 16.04 34.312 16.328C34.312 16.616 34.3333 16.8347 34.376 16.984C34.4187 17.1333 34.52 17.208 34.68 17.208C34.968 17.208 35.6453 16.6533 36.712 15.544C36.904 15.3307 37.0427 15.224 37.128 15.224ZM33.72 10.456C33.72 9.528 33.3733 9.064 32.68 9.064C31.976 9.064 31.368 9.36267 30.856 9.96C30.3547 10.5467 29.9653 11.336 29.688 12.328L33.32 12.376C33.5867 11.5227 33.72 10.8827 33.72 10.456ZM40.909 17.832C40.3757 18.568 39.661 18.936 38.765 18.936C38.0397 18.936 37.4583 18.7867 37.021 18.488C36.5943 18.1787 36.381 17.6933 36.381 17.032C36.381 16.7547 36.4183 16.4987 36.493 16.264C36.5783 16.0293 36.7117 15.7413 36.893 15.4L37.357 11.608C37.6877 11.352 38.1357 11.224 38.701 11.224C39.181 11.224 39.453 11.544 39.517 12.184C39.5383 12.376 39.549 12.6053 39.549 12.872C39.549 13.128 39.5063 13.4 39.421 13.688C38.9943 15.16 38.7863 16.1467 38.797 16.648C38.797 17.032 39.021 17.224 39.469 17.224C39.917 17.224 40.2477 17.08 40.461 16.792C40.6743 16.504 40.8557 16.1467 41.005 15.72C41.2823 14.536 41.5383 13.56 41.773 12.792C42.0183 12.024 42.173 11.5653 42.237 11.416C42.3437 11.16 42.5463 11.0267 42.845 11.016C43.1437 11.0267 43.4263 11.24 43.693 11.656C43.9597 12.0613 44.093 12.376 44.093 12.6C44.0717 13.3467 43.6077 15.2293 42.701 18.248C43.3943 17.704 44.0823 17.0373 44.765 16.248C44.9997 15.9707 45.197 15.7413 45.357 15.56C45.517 15.368 45.645 15.272 45.741 15.272C45.8903 15.272 45.965 15.4427 45.965 15.784C45.965 16.456 45.5863 17.24 44.829 18.136C44.0823 19.032 43.165 19.7307 42.077 20.232C41.949 20.6587 41.8103 21.064 41.661 21.448C41.5117 21.832 41.3197 22.168 41.085 22.456C40.573 23.0747 39.7943 23.384 38.749 23.384C38.045 23.384 37.4423 23.1813 36.941 22.776C36.4503 22.3707 36.205 21.864 36.205 21.256C36.205 20.9147 36.317 20.6427 36.541 20.44C36.7757 20.2373 37.0903 20.0667 37.485 19.928C37.8903 19.8 38.3597 19.6827 38.893 19.576C39.4263 19.48 39.997 19.3573 40.605 19.208C40.7543 18.568 40.8557 18.1093 40.909 17.832ZM38.733 22.152C39.2343 22.152 39.6877 21.7147 40.093 20.84C39.709 20.9147 39.3677 20.968 39.069 21C38.7703 21.0427 38.5143 21.08 38.301 21.112C37.8743 21.176 37.6663 21.288 37.677 21.448C37.677 21.6507 37.7943 21.8213 38.029 21.96C38.2743 22.0987 38.509 22.1627 38.733 22.152ZM49.9355 11.864C50.8635 11.864 51.3275 12.0987 51.3275 12.568C51.3275 13.112 50.7942 13.384 49.7275 13.384C49.4928 13.384 49.2368 13.3413 48.9595 13.256C48.6502 13.4693 48.4102 13.736 48.2395 14.056C48.0795 14.376 47.9995 14.84 47.9995 15.448C47.9995 16.0453 48.2342 16.488 48.7035 16.776C49.1835 17.064 49.7435 17.208 50.3835 17.208C51.0342 17.208 51.5568 17.1067 51.9515 16.904C52.3568 16.6907 52.7088 16.4613 53.0075 16.216C53.3062 15.9707 53.5462 15.7467 53.7275 15.544C53.9195 15.3307 54.0582 15.224 54.1435 15.224C54.2288 15.224 54.2982 15.2827 54.3515 15.4C54.4048 15.5067 54.4315 15.6507 54.4315 15.832C54.4315 16.6853 53.9568 17.4373 53.0075 18.088C52.0688 18.728 50.9435 19.048 49.6315 19.048C47.5835 19.048 46.2555 18.456 45.6475 17.272C45.4342 16.856 45.3275 16.3547 45.3275 15.768C45.3275 14.2427 46.0902 13.176 47.6155 12.568C46.8368 12.024 46.4475 11.2027 46.4475 10.104C46.4475 9.58133 46.5915 9.096 46.8795 8.648C46.6128 8.34933 46.3942 8.03467 46.2235 7.704C46.0635 7.37333 45.9835 7.12267 45.9835 6.952C45.9835 6.65333 46.0902 6.504 46.3035 6.504C46.4528 6.504 46.6342 6.62133 46.8475 6.856C47.0715 7.08 47.2528 7.26133 47.3915 7.4C47.5302 7.53867 47.6742 7.65067 47.8235 7.736C48.7302 7.18133 49.7968 6.904 51.0235 6.904C52.2502 6.904 53.0662 7.24533 53.4715 7.928C53.6208 8.184 53.6955 8.49867 53.6955 8.872C53.6955 9.43733 53.4502 9.912 52.9595 10.296C52.4688 10.68 51.8235 10.872 51.0235 10.872C50.2235 10.872 49.4768 10.616 48.7835 10.104C48.7728 10.1467 48.7675 10.1893 48.7675 10.232V10.584C48.7675 10.776 48.8262 11.0053 48.9435 11.272C49.0715 11.528 49.2262 11.7413 49.4075 11.912C49.5675 11.88 49.7435 11.864 49.9355 11.864ZM51.9195 9.112C51.9195 8.696 51.5782 8.488 50.8955 8.488C50.2128 8.488 49.6635 8.696 49.2475 9.112C49.8235 9.464 50.4102 9.64 51.0075 9.64C51.6155 9.64 51.9195 9.464 51.9195 9.112ZM63.4603 15.224C63.6523 15.224 63.7483 15.4693 63.7483 15.96C63.7483 16.2267 63.6363 16.552 63.4123 16.936C63.1883 17.3093 62.8949 17.656 62.5323 17.976C62.1803 18.2853 61.7856 18.5413 61.3483 18.744C60.9109 18.9467 60.4843 19.048 60.0683 19.048C59.4816 19.048 59.0976 18.568 58.9163 17.608C58.2763 18.6213 57.3269 19.128 56.0683 19.128C55.3003 19.128 54.6869 18.8933 54.2283 18.424C53.7696 17.9547 53.5456 17.384 53.5563 16.712C53.5563 14.8987 54.1589 13.4693 55.3643 12.424C56.1963 11.7093 57.0603 11.352 57.9563 11.352C58.3616 11.352 58.6816 11.384 58.9163 11.448L59.2843 11.544C59.7216 9.48533 60.2283 8.10933 60.8043 7.416C60.9963 7.18133 61.1883 7.064 61.3802 7.064C61.6896 7.064 61.9776 7.27733 62.2443 7.704C62.4789 8.056 62.5963 8.36 62.5963 8.616C62.5963 8.872 62.5589 9.12267 62.4843 9.368C62.4096 9.61333 62.3136 9.84267 62.1962 10.056C62.0896 10.2587 61.9669 10.4613 61.8283 10.664C61.6896 10.856 61.5509 11.0533 61.4123 11.256C61.1029 12.408 60.8736 13.6987 60.7243 15.128C60.6816 15.5333 60.6603 15.8587 60.6603 16.104C60.6603 16.84 60.7829 17.208 61.0283 17.208C61.3056 17.208 61.9776 16.6533 63.0443 15.544C63.2363 15.3307 63.3749 15.224 63.4603 15.224ZM55.9083 16.184C55.9083 17.0053 56.2123 17.416 56.8203 17.416C57.1829 17.416 57.5456 17.2773 57.9083 17C58.2816 16.7227 58.5696 16.2587 58.7723 15.608C58.7936 14.648 58.9056 13.592 59.1083 12.44C58.2549 12.6107 57.5083 13.0267 56.8683 13.688C56.2283 14.3493 55.9083 15.1813 55.9083 16.184ZM72.7728 15.224C72.9648 15.224 73.0608 15.4693 73.0608 15.96C73.0608 16.2267 72.9488 16.552 72.7248 16.936C72.5008 17.3093 72.2074 17.656 71.8448 17.976C71.4928 18.2853 71.0981 18.5413 70.6608 18.744C70.2234 18.9467 69.7968 19.048 69.3808 19.048C68.8154 19.048 68.4368 18.552 68.2448 17.56C67.9674 18.0187 67.6048 18.3973 67.1568 18.696C66.7088 18.984 66.1061 19.128 65.3488 19.128C64.6021 19.128 63.9994 18.8933 63.5408 18.424C63.0821 17.9547 62.8581 17.384 62.8688 16.712C62.8688 14.8987 63.4714 13.4693 64.6768 12.424C65.1888 11.9867 65.6634 11.6987 66.1008 11.56C66.5488 11.4213 67.0181 11.352 67.5088 11.352C67.9994 11.352 68.3994 11.4373 68.7088 11.608C68.8581 11.2987 69.0288 11.144 69.2208 11.144C69.5941 11.144 69.9461 11.3093 70.2768 11.64C70.6181 11.96 70.7888 12.264 70.7888 12.552C70.6394 12.904 70.4208 13.3253 70.1328 13.816C70.0474 14.3067 70.0048 14.9947 70.0048 15.88C70.0048 16.7653 70.1168 17.208 70.3408 17.208C70.6181 17.208 71.2901 16.6533 72.3568 15.544C72.5488 15.3307 72.6874 15.224 72.7728 15.224ZM65.2208 16.184C65.2208 17.0053 65.5248 17.416 66.1328 17.416C66.7834 17.4053 67.3221 17.0587 67.7488 16.376C67.8981 16.1413 68.0208 15.8533 68.1168 15.512C68.1168 14.3173 68.2234 13.2933 68.4368 12.44C67.5728 12.6107 66.8208 13.0267 66.1808 13.688C65.5408 14.3493 65.2208 15.1813 65.2208 16.184Z" fill="black"/>
<defs>
<clipPath id="clip0_82_31">
<rect width="24.6014" height="24.6014" fill="white" transform="translate(0.301758) rotate(0.703033)"/>
</clipPath>
</defs>
</svg>
